#!OML:ASF F:\VICON\USERDATA\INSTALL\rory3\rory3.ASF
:FULLY-SPECIFIED
:DEGREES
240
root -13.0383 17.8469 13.8769 -1.4387 73.8925 -4.86782
lowerback 12.1253 3.55702 3.51631
upperback 1.14355 5.21488 -0.223561
thorax -5.24441 2.50388 -3.05197
lowerneck -21.3951 -4.84572 -11.6119
upperneck 28.9195 -4.27196 5.91664
head 13.828 -2.19905 3.59844
rclavicle 2.61899e-014 -4.17448e-015
rhumerus -30.913 -7.24848 -72.7518
rradius 25.743
rwrist 9.80652
rhand -15.505 8.94444
rfingers 7.12502
rthumb 10.6777 -20.7642
lclavicle 2.61899e-014 -4.17448e-015
lhumerus -34.8838 8.7812 77.423
lradius 36.3041
lwrist -2.24135
lhand -20.9105 27.2322
lfingers 7.12502
lthumb 5.46074 57.1418
rfemur 7.21005 -5.425 21.7344
rtibia 11.855
rfoot -15.4303 -24.18
rtoes -5.28403
lfemur -27.8427 2.692 -16.7502
ltibia 18.1945
lfoot -9.1397 14.842
ltoes -1.6744
241
root -12.9615 17.8357 13.8845 -1.39759 74.211 -5.03849
lowerback 12.0086 3.65136 3.66327
upperback 1.10876 5.35268 -0.263776
thorax -5.18898 2.56913 -3.18828
lowerneck -21.3908 -4.83912 -11.5201
upperneck 29.0049 -4.29557 5.92681
head 13.8635 -2.19652 3.58597
rclavicle 6.37602e-014 7.95139e-016
rhumerus -30.513 -7.71905 -72.5449
rradius 25.7761
rwrist 9.83283
rhand -15.536 8.96978
rfingers 7.12502
rthumb 10.6478 -20.7404
lclavicle 6.37602e-014 7.95139e-016
lhumerus -35.3087 9.33477 77.0054
lradius 36.1236
lwrist -2.84751
lhand -22.1713 29.0301
lfingers 7.12502
lthumb 4.24336 58.9676
rfemur 7.49865 -5.38459 21.8092
rtibia 11.457
rfoot -15.267 -24.5639
rtoes -6.2938
lfemur -28.0635 1.62626 -16.4226
ltibia 17.4944
lfoot -9.11309 15.552
ltoes -3.4685
242
root -12.8802 17.8244 13.8892 -1.08317 74.5741 -4.99034
lowerback 11.8051 3.71198 3.78304
upperback 1.06715 5.43634 -0.336418
thorax -5.09518 2.60916 -3.32793
lowerneck -21.2784 -4.8223 -11.4205
upperneck 28.8977 -4.32347 5.93934
head 13.7931 -2.19462 3.56651
rclavicle 1.69464e-014 3.97569e-015
rhumerus -30.1126 -8.17655 -72.4088
rradius 25.8827
rwrist 9.80214
rhand -15.9338 9.14279
rfingers 7.12502
rthumb 10.264 -20.5868
lclavicle 1.69464e-014 3.97569e-015
lhumerus -35.6854 9.9532 76.5352
lradius 35.7867
lwrist -3.44302
lhand -22.5565 28.9327
lfingers 7.12502
lthumb 3.87142 58.8772
rfemur 7.66444 -5.44671 21.7863
rtibia 11.171
rfoot -15.2744 -24.8931
rtoes -6.70769
lfemur -28.3321 0.598857 -16.2022
ltibia 16.8924
lfoot -8.9983 15.926
ltoes -6.59306
243
root -12.7967 17.8143 13.8974 -1.03714 74.8416 -5.12022
lowerback 11.6994 3.80034 3.88287
upperback 1.06158 5.5607 -0.35974
thorax -5.02067 2.6704 -3.41666
lowerneck -21.2314 -4.83149 -11.3249
upperneck 28.7979 -4.35116 5.8634
head 13.7385 -2.2053 3.51136
rclavicle -1.70955e-014 5.1684e-015
rhumerus -29.6877 -8.58073 -72.2508
rradius 26.0151
rwrist 9.53206
rhand -16.1952 9.17502
rfingers 7.12502
rthumb 10.0119 -20.5668
lclavicle -1.70955e-014 5.1684e-015
lhumerus -36.0308 10.524 76.1445
lradius 35.5267
lwrist -3.79779
lhand -22.6714 29.0522
lfingers 7.12502
lthumb 3.7604 58.9988
rfemur 7.95836 -5.65785 21.7429
rtibia 10.8711
rfoot -15.0319 -24.9268
rtoes -7.2744
lfemur -28.4696 -0.0213794 -16.0146
ltibia 16.4614
lfoot -9.04512 15.8023
ltoes -8.5978
244
root -12.7113 17.805 13.9082 -1.06185 75.0433 -5.29819
lowerback 11.583 3.90032 3.97686
upperback 1.08146 5.69951 -0.370613
thorax -4.91352 2.74076 -3.48832
lowerneck -21.2652 -4.86338 -11.4085
upperneck 28.7708 -4.38093 5.92434
head 13.7418 -2.21808 3.54394
rclavicle -2.56432e-014 1.21259e-014
rhumerus -29.2726 -9.08291 -72.0598
rradius 26.2727
rwrist 9.27049
rhand -16.046 8.9312
rfingers 7.12502
rthumb 10.1557 -20.8037
lclavicle -2.56432e-014 1.21259e-014
lhumerus -36.3465 11.0548 75.7894
lradius 35.2899
lwrist -4.11101
lhand -22.4871 29.4409
lfingers 7.12502
lthumb 3.93841 59.3842
rfemur 8.24887 -5.83979 21.7181
rtibia 10.6995
rfoot -14.816 -24.8935
rtoes -8.17624
lfemur -28.5089 -0.429441 -15.8368
ltibia 16.122
lfoot -9.32212 15.3408
ltoes -7.22627
245
root -12.6242 17.7929 13.9215 -1.09172 75.2255 -5.43083
lowerback 11.446 4.0326 4.00771
upperback 1.16127 5.87186 -0.375783
thorax -4.7354 2.83284 -3.51781
lowerneck -21.4039 -4.91425 -11.401
upperneck 28.7994 -4.44733 5.94514
head 13.7911 -2.24164 3.53898
rclavicle 5.2181e-015 5.96354e-015
rhumerus -28.8336 -9.59491 -71.9229
rradius 26.6144
rwrist 8.94657
rhand -15.9967 8.72415
rfingers 7.12502
rthumb 10.2033 -21.0084
lclavicle 5.2181e-015 5.96354e-015
lhumerus -36.5755 11.5212 75.4593
lradius 34.9767
lwrist -4.3814
lhand -21.7494 29.4109
lfingers 7.12502
lthumb 4.65071 59.3398
rfemur 8.43449 -5.96868 21.687
rtibia 10.8506
rfoot -14.8468 -24.9206
rtoes -9.11133
lfemur -28.3812 -0.179773 -15.9341
ltibia 15.7447
lfoot -9.33535 14.2267
ltoes -5.12581
246
root -12.5364 17.7814 13.9329 0.650306 75.5136 -3.87218
lowerback 11.2573 4.12021 3.58414
upperback 1.17172 5.92037 -0.50019
thorax -4.64493 2.86688 -3.4023
lowerneck -21.5868 -4.9473 -11.4067
upperneck 28.8575 -4.48538 5.98633
head 13.8602 -2.25162 3.55048
rclavicle -1.92324e-014 9.93923e-015
rhumerus -28.4373 -9.98929 -71.8798
rradius 27.0194
rwrist 8.56736
rhand -16.0206 8.91427
rfingers 7.12502
rthumb 10.1803 -20.8194
lclavicle -1.92324e-014 9.93923e-015
lhumerus -36.9395 11.9781 75.0906
lradius 34.7344
lwrist -4.63121
lhand -20.9866 29.0334
lfingers 7.12502
lthumb 5.38732 58.9449
rfemur 8.43293 -6.07571 21.1538
rtibia 11.1558
rfoot -15.1127 -24.7735
rtoes -9.15444
lfemur -28.3882 0.576658 -16.8271
ltibia 15.4532
lfoot -8.73619 12.8119
ltoes -5.26276
